<?xml version="1.0" encoding="UTF-8"?>
<svg xmlns="http://www.w3.org/2000/svg" xmlns:xlink="http://www.w3.org/1999/xlink" stroke-dasharray="none" shape-rendering="auto" font-family="'Dialog'" width="720" text-rendering="auto" fill-opacity="1" contentScriptType="text/ecmascript" color-interpolation="auto" color-rendering="auto" preserveAspectRatio="xMidYMid meet" font-size="12" fill="black" stroke="black" image-rendering="auto" stroke-miterlimit="10" zoomAndPan="magnify" version="1.0" stroke-linecap="square" stroke-linejoin="miter" contentStyleType="text/css" font-style="normal" height="540" stroke-width="1" stroke-dashoffset="0" font-weight="normal" stroke-opacity="1">
<!--Generated by the Batik Graphics2D SVG Generator-->
<defs id="genericDefs"/>
<g>
<g fill="white" stroke="white">
<rect x="0" width="720" height="540" y="0" stroke="none"/>
</g>
<g stroke-width="0.25" font-size="39.6" stroke-miterlimit="1" font-family="'Calibri'" stroke-linejoin="round" stroke-linecap="butt">
<text x="122.4" xml:space="preserve" y="55.3301" stroke="none">スライドスタックを用いた</text>
<text x="122.4" xml:space="preserve" y="104.3301" stroke="none">プレゼンテーションの実現</text>
</g>
<g stroke-width="0.25" font-size="32" stroke-miterlimit="1" font-family="'Arial'" stroke-linejoin="round" stroke-linecap="butt">
<text x="43.2" xml:space="preserve" y="158.5688" stroke="none">•</text>
<text x="70.2" xml:space="preserve" y="160.0688" font-family="'Calibri'" stroke="none">再生用ファイルはHTML, JavaScript, CSSファ</text>
<text x="70.2" xml:space="preserve" y="200.0688" font-family="'Calibri'" stroke="none">イル</text>
<text x="43.2" xml:space="preserve" y="246.5688" stroke="none">•</text>
<text x="70.2" xml:space="preserve" y="248.0688" font-family="'Calibri'" stroke="none">スライドファイルはSVGファイル</text>
<text x="43.2" xml:space="preserve" y="294.5688" stroke="none">•</text>
<text x="70.2" xml:space="preserve" y="296.0688" font-family="'Calibri'" stroke="none">プレゼンテーションの機能</text>
<text x="79.2" xml:space="preserve" font-size="28" y="337.9477" stroke="none">–</text>
<text x="101.7" xml:space="preserve" font-size="28" y="339.2602" font-family="'Calibri'" stroke="none">スライド遷移</text>
<text x="115.2" xml:space="preserve" font-size="24" y="375.3266" stroke="none">•</text>
<text x="133.2" xml:space="preserve" font-size="24" y="376.4516" font-family="'Calibri'" stroke="none">SVGファイルの切り替え</text>
<text x="79.2" xml:space="preserve" font-size="28" y="415.9477" stroke="none">–</text>
<text x="101.7" xml:space="preserve" font-size="28" y="417.2602" font-family="'Calibri'" stroke="none">アニメーションの再生</text>
<text x="115.2" xml:space="preserve" font-size="24" y="453.3266" stroke="none">•</text>
<text x="133.2" xml:space="preserve" font-size="24" y="454.4516" font-family="'Calibri'" stroke="none">JavaScriptでanimateタグを実行</text>
</g>
<g stroke-linecap="butt" transform="translate(0,1.811)" fill-opacity="0.349" fill="rgb(0,0,0)" stroke-linejoin="round" stroke="rgb(0,0,0)" stroke-width="1.5" stroke-opacity="0.349" stroke-miterlimit="1.5">
<path d="M471.628 255.5375 L530.3043 255.5375 L542.0399 267.273 L542.0399 332.1607 L471.628 332.1607 Z" stroke="none"/>
</g>
<g fill="white" stroke-width="1.5" stroke-miterlimit="1.5" stroke-linejoin="round" stroke-linecap="butt" stroke="white">
<path d="M471.628 255.5375 L530.3043 255.5375 L542.0399 267.273 L542.0399 332.1607 L471.628 332.1607 Z" stroke="none"/>
</g>
<g stroke-width="1.5" font-size="20" stroke-miterlimit="1.5" font-family="'Calibri'" stroke-linejoin="round" stroke-linecap="butt">
<text x="482.9765" xml:space="preserve" y="299.8921" stroke="none">HTML</text>
<path fill="none" d="M471.628 255.5375 L530.3043 255.5375 L542.0399 267.273 L542.0399 332.1607 L471.628 332.1607 Z"/>
</g>
<g stroke-linecap="butt" transform="translate(0,1.811)" fill-opacity="0.349" fill="rgb(0,0,0)" stroke-linejoin="round" stroke="rgb(0,0,0)" stroke-width="1.5" stroke-opacity="0.349" stroke-miterlimit="1.5">
<path d="M529.9182 267.0046 L529.9182 255.5375 L542.0399 267.0046 Z" stroke="none"/>
</g>
<g fill="white" stroke-width="1.5" stroke-miterlimit="1.5" stroke-linejoin="round" stroke-linecap="butt" stroke="white">
<path d="M529.9182 267.0046 L529.9182 255.5375 L542.0399 267.0046 Z" stroke="none"/>
<path fill="none" d="M529.9182 267.0046 L529.9182 255.5375 L542.0399 267.0046 Z" stroke="black"/>
</g>
<g stroke-linecap="butt" transform="translate(0,1.811)" fill-opacity="0.349" fill="rgb(0,0,0)" stroke-linejoin="round" stroke="rgb(0,0,0)" stroke-width="1.5" stroke-opacity="0.349" stroke-miterlimit="1.5">
<path d="M562.1327 363.0202 L617.7658 363.0202 L628.8927 374.147 L628.8927 435.6694 L562.1327 435.6694 Z" stroke="none"/>
</g>
<g fill="white" stroke-width="1.5" stroke-miterlimit="1.5" stroke-linejoin="round" stroke-linecap="butt" stroke="white">
<path d="M562.1327 363.0202 L617.7658 363.0202 L628.8927 374.147 L628.8927 435.6694 L562.1327 435.6694 Z" stroke="none"/>
</g>
<g stroke-width="1.5" font-size="24" stroke-miterlimit="1.5" font-family="'Calibri'" stroke-linejoin="round" stroke-linecap="butt">
<text x="571.0381" xml:space="preserve" y="407.1964" stroke="none">PPTX</text>
<path fill="none" d="M562.1327 363.0202 L617.7658 363.0202 L628.8927 374.147 L628.8927 435.6694 L562.1327 435.6694 Z"/>
</g>
<g stroke-linecap="butt" transform="translate(0,1.811)" fill-opacity="0.349" fill="rgb(0,0,0)" stroke-linejoin="round" stroke="rgb(0,0,0)" stroke-width="1.5" stroke-opacity="0.349" stroke-miterlimit="1.5">
<path d="M617.3997 373.8925 L617.3997 363.0202 L628.8927 373.8925 Z" stroke="none"/>
</g>
<g fill="white" stroke-width="1.5" stroke-miterlimit="1.5" stroke-linejoin="round" stroke-linecap="butt" stroke="white">
<path d="M617.3997 373.8925 L617.3997 363.0202 L628.8927 373.8925 Z" stroke="none"/>
<path fill="none" d="M617.3997 373.8925 L617.3997 363.0202 L628.8927 373.8925 Z" stroke="black"/>
</g>
<g stroke-linecap="butt" transform="translate(0,1.811)" fill-opacity="0.349" fill="rgb(0,0,0)" stroke-linejoin="round" stroke="rgb(0,0,0)" stroke-width="1.5" stroke-opacity="0.349" stroke-miterlimit="1.5">
<path d="M556.4557 367.4664 L612.0888 367.4664 L623.2157 378.5933 L623.2157 440.1157 L556.4557 440.1157 Z" stroke="none"/>
</g>
<g fill="white" stroke-width="1.5" stroke-miterlimit="1.5" stroke-linejoin="round" stroke-linecap="butt" stroke="white">
<path d="M556.4557 367.4664 L612.0888 367.4664 L623.2157 378.5933 L623.2157 440.1157 L556.4557 440.1157 Z" stroke="none"/>
</g>
<g stroke-width="1.5" font-size="24" stroke-miterlimit="1.5" font-family="'Calibri'" stroke-linejoin="round" stroke-linecap="butt">
<text x="565.3611" xml:space="preserve" y="411.6426" stroke="none">PPTX</text>
<path fill="none" d="M556.4557 367.4664 L612.0888 367.4664 L623.2157 378.5933 L623.2157 440.1157 L556.4557 440.1157 Z"/>
</g>
<g stroke-linecap="butt" transform="translate(0,1.811)" fill-opacity="0.349" fill="rgb(0,0,0)" stroke-linejoin="round" stroke="rgb(0,0,0)" stroke-width="1.5" stroke-opacity="0.349" stroke-miterlimit="1.5">
<path d="M611.7227 378.3388 L611.7227 367.4664 L623.2157 378.3388 Z" stroke="none"/>
</g>
<g fill="white" stroke-width="1.5" stroke-miterlimit="1.5" stroke-linejoin="round" stroke-linecap="butt" stroke="white">
<path d="M611.7227 378.3388 L611.7227 367.4664 L623.2157 378.3388 Z" stroke="none"/>
<path fill="none" d="M611.7227 378.3388 L611.7227 367.4664 L623.2157 378.3388 Z" stroke="black"/>
</g>
<g stroke-linecap="butt" transform="translate(0,1.811)" fill-opacity="0.349" fill="rgb(0,0,0)" stroke-linejoin="round" stroke="rgb(0,0,0)" stroke-width="1.5" stroke-opacity="0.349" stroke-miterlimit="1.5">
<path d="M551.1663 372.5057 L606.7994 372.5057 L617.9263 383.6326 L617.9263 445.155 L551.1663 445.155 Z" stroke="none"/>
</g>
<g fill="white" stroke-width="1.5" stroke-miterlimit="1.5" stroke-linejoin="round" stroke-linecap="butt" stroke="white">
<path d="M551.1663 372.5057 L606.7994 372.5057 L617.9263 383.6326 L617.9263 445.155 L551.1663 445.155 Z" stroke="none"/>
</g>
<g stroke-width="1.5" font-size="24" stroke-miterlimit="1.5" font-family="'Calibri'" stroke-linejoin="round" stroke-linecap="butt">
<text x="564.6537" xml:space="preserve" y="416.6819" stroke="none">SVG</text>
<path fill="none" d="M551.1663 372.5057 L606.7994 372.5057 L617.9263 383.6326 L617.9263 445.155 L551.1663 445.155 Z"/>
</g>
<g stroke-linecap="butt" transform="translate(0,1.811)" fill-opacity="0.349" fill="rgb(0,0,0)" stroke-linejoin="round" stroke="rgb(0,0,0)" stroke-width="1.5" stroke-opacity="0.349" stroke-miterlimit="1.5">
<path d="M606.4333 383.378 L606.4333 372.5056 L617.9263 383.378 Z" stroke="none"/>
</g>
<g fill="white" stroke-width="1.5" stroke-miterlimit="1.5" stroke-linejoin="round" stroke-linecap="butt" stroke="white">
<path d="M606.4333 383.378 L606.4333 372.5056 L617.9263 383.378 Z" stroke="none"/>
<path fill="none" d="M606.4333 383.378 L606.4333 372.5056 L617.9263 383.378 Z" stroke="black"/>
</g>
<g stroke-linecap="butt" transform="translate(0,1.811)" fill-opacity="0.349" fill="rgb(0,0,0)" stroke-linejoin="round" stroke="rgb(0,0,0)" stroke-width="1.5" stroke-opacity="0.349" stroke-miterlimit="1.5">
<path d="M551.1663 257.2159 L609.8426 257.2159 L621.5781 268.9514 L621.5781 333.8391 L551.1663 333.8391 Z" stroke="none"/>
</g>
<g fill="white" stroke-width="1.5" stroke-miterlimit="1.5" stroke-linejoin="round" stroke-linecap="butt" stroke="white">
<path d="M551.1663 257.2159 L609.8426 257.2159 L621.5781 268.9514 L621.5781 333.8391 L551.1663 333.8391 Z" stroke="none"/>
</g>
<g stroke-width="1.5" font-size="24" stroke-miterlimit="1.5" font-family="'Calibri'" stroke-linejoin="round" stroke-linecap="butt">
<text x="577.0323" xml:space="preserve" y="303.3791" stroke="none">JS</text>
<path fill="none" d="M551.1663 257.2159 L609.8426 257.2159 L621.5781 268.9514 L621.5781 333.8391 L551.1663 333.8391 Z"/>
</g>
<g stroke-linecap="butt" transform="translate(0,1.811)" fill-opacity="0.349" fill="rgb(0,0,0)" stroke-linejoin="round" stroke="rgb(0,0,0)" stroke-width="1.5" stroke-opacity="0.349" stroke-miterlimit="1.5">
<path d="M609.4564 268.683 L609.4564 257.2159 L621.5781 268.683 Z" stroke="none"/>
</g>
<g fill="white" stroke-width="1.5" stroke-miterlimit="1.5" stroke-linejoin="round" stroke-linecap="butt" stroke="white">
<path d="M609.4564 268.683 L609.4564 257.2159 L621.5781 268.683 Z" stroke="none"/>
<path fill="none" d="M609.4564 268.683 L609.4564 257.2159 L621.5781 268.683 Z" stroke="black"/>
</g>
<g stroke-linecap="butt" transform="translate(0,1.811)" fill-opacity="0.349" fill="rgb(0,0,0)" stroke-linejoin="round" stroke="rgb(0,0,0)" stroke-width="1.5" stroke-opacity="0.349" stroke-miterlimit="1.5">
<path d="M628.8927 257.2159 L687.569 257.2159 L699.3045 268.9514 L699.3045 333.8391 L628.8927 333.8391 Z" stroke="none"/>
</g>
<g fill="white" stroke-width="1.5" stroke-miterlimit="1.5" stroke-linejoin="round" stroke-linecap="butt" stroke="white">
<path d="M628.8927 257.2159 L687.569 257.2159 L699.3045 268.9514 L699.3045 333.8391 L628.8927 333.8391 Z" stroke="none"/>
</g>
<g stroke-width="1.5" font-size="24" stroke-miterlimit="1.5" font-family="'Calibri'" stroke-linejoin="round" stroke-linecap="butt">
<text x="646.6728" xml:space="preserve" y="303.3791" stroke="none">CSS</text>
<path fill="none" d="M628.8927 257.2159 L687.569 257.2159 L699.3045 268.9514 L699.3045 333.8391 L628.8927 333.8391 Z"/>
</g>
<g stroke-linecap="butt" transform="translate(0,1.811)" fill-opacity="0.349" fill="rgb(0,0,0)" stroke-linejoin="round" stroke="rgb(0,0,0)" stroke-width="1.5" stroke-opacity="0.349" stroke-miterlimit="1.5">
<path d="M687.1828 268.683 L687.1828 257.2159 L699.3045 268.683 Z" stroke="none"/>
</g>
<g fill="white" stroke-width="1.5" stroke-miterlimit="1.5" stroke-linejoin="round" stroke-linecap="butt" stroke="white">
<path d="M687.1828 268.683 L687.1828 257.2159 L699.3045 268.683 Z" stroke="none"/>
<path fill="none" d="M687.1828 268.683 L687.1828 257.2159 L699.3045 268.683 Z" stroke="black"/>
</g>
</g>

</svg>
